<svg width="201" height="43" viewBox="0 0 201 43" fill="none" xmlns="http://www.w3.org/2000/svg">
<path d="M0 4.60575C0 3.0433 1.87072 2.24064 3.00305 3.31725L11.9991 11.8706C13.6759 13.4649 14.6251 15.6773 14.6251 17.991V38.6397C14.6251 40.5943 12.2837 41.597 10.8691 40.2482L3.16864 32.9064C1.14509 30.9771 0 28.3032 0 25.5073V4.60575Z" fill="url(#paint0_linear)"/>
<path d="M7.14324 3.87904C5.96826 2.77639 6.74857 0.804626 8.35991 0.804626H23.1483C26.585 0.804626 29.3711 3.59068 29.3711 7.02745V23.1022C29.3711 26.7844 26.386 29.7695 22.7038 29.7695H20.4616C18.4977 29.7695 16.9057 28.1774 16.9057 26.2136V16.8893C16.9057 14.4336 15.8899 12.0874 14.0993 10.4069L7.14324 3.87904Z" fill="url(#paint1_linear)"/>
<path d="M41.3137 32H46.1006V21.7223H54.6888V16.9354H46.1006V11.4445H56.8007V6.65762H41.3137V32ZM59.7801 10.3534H64.567V6.12966H59.7801V10.3534ZM59.7801 32H64.567V12.9932H59.7801V32ZM69.258 32H74.1152V22.3558C74.1152 21.1708 74.2443 20.2205 74.5024 19.5048C74.7723 18.7891 75.1125 18.2494 75.5232 17.8857C75.9338 17.5103 76.3738 17.258 76.8431 17.129C77.3124 16.9999 77.7523 16.9354 78.163 16.9354C79.1837 16.9354 79.9698 17.1642 80.5212 17.6217C81.0844 18.0793 81.4892 18.6483 81.7356 19.3288C81.9819 20.0093 82.1286 20.6898 82.1755 21.3703C82.2225 22.039 82.2459 22.5905 82.2459 23.0246V32H87.1032V21.3351C87.1032 21.0183 87.0797 20.5138 87.0328 19.8216C86.9859 19.1294 86.851 18.3667 86.628 17.5337C86.4051 16.689 86.0297 15.8794 85.5017 15.1051C84.9855 14.3307 84.2581 13.6913 83.3195 13.1868C82.3808 12.6823 81.1665 12.4301 79.6765 12.4301C78.3038 12.4301 77.1071 12.6588 76.0863 13.1164C75.0656 13.574 74.2091 14.1841 73.5169 14.9467V12.9932H69.258V32ZM96.3995 32.528C97.8661 32.528 99.098 32.305 100.095 31.8592C101.104 31.4016 102.031 30.6742 102.876 29.6769V32H107.064V20.3847C107.064 19.5165 107.029 18.7305 106.959 18.0265C106.888 17.3225 106.666 16.6186 106.29 15.9146C105.621 14.6475 104.636 13.7558 103.333 13.2396C102.031 12.7234 100.541 12.4653 98.8634 12.4653C96.5755 12.4653 94.7687 12.958 93.4429 13.9436C92.1171 14.9291 91.2137 16.2079 90.7327 17.7801L95.062 19.1528C95.3671 18.2846 95.9009 17.6804 96.6635 17.3401C97.4261 16.9999 98.1594 16.8298 98.8634 16.8298C99.9897 16.8298 100.829 17.041 101.38 17.4633C101.931 17.874 102.254 18.5251 102.348 19.4168C100.565 19.6749 98.9924 19.9272 97.6315 20.1736C96.2705 20.4082 95.1324 20.6898 94.2173 21.0183C92.692 21.5815 91.6185 22.35 90.9967 23.3238C90.3749 24.2858 90.0639 25.4298 90.0639 26.7555C90.0639 27.8115 90.3045 28.7794 90.7855 29.6594C91.2783 30.5276 91.994 31.2256 92.9326 31.7536C93.8829 32.2698 95.0386 32.528 96.3995 32.528ZM97.4203 28.7618C96.599 28.7618 95.9478 28.58 95.4668 28.2162C94.9858 27.8408 94.7452 27.3304 94.7452 26.6851C94.7452 26.2041 94.8978 25.7935 95.2028 25.4532C95.5079 25.1012 96.0124 24.7845 96.7163 24.5029C97.256 24.3034 97.9189 24.1216 98.705 23.9573C99.5028 23.7813 100.705 23.5584 102.313 23.2886C102.301 23.7461 102.266 24.2506 102.207 24.8021C102.149 25.3418 102.019 25.8169 101.82 26.2276C101.691 26.4974 101.445 26.8318 101.081 27.2307C100.729 27.6296 100.248 27.9875 99.6377 28.3042C99.0394 28.6093 98.3002 28.7618 97.4203 28.7618ZM111.055 32H115.913V22.3558C115.913 21.1708 116.042 20.2205 116.3 19.5048C116.57 18.7891 116.91 18.2494 117.32 17.8857C117.731 17.5103 118.171 17.258 118.64 17.129C119.11 16.9999 119.55 16.9354 119.96 16.9354C120.981 16.9354 121.767 17.1642 122.319 17.6217C122.882 18.0793 123.286 18.6483 123.533 19.3288C123.779 20.0093 123.926 20.6898 123.973 21.3703C124.02 22.039 124.043 22.5905 124.043 23.0246V32H128.901V21.3351C128.901 21.0183 128.877 20.5138 128.83 19.8216C128.783 19.1294 128.648 18.3667 128.425 17.5337C128.202 16.689 127.827 15.8794 127.299 15.1051C126.783 14.3307 126.055 13.6913 125.117 13.1868C124.178 12.6823 122.964 12.4301 121.474 12.4301C120.101 12.4301 118.904 12.6588 117.884 13.1164C116.863 13.574 116.006 14.1841 115.314 14.9467V12.9932H111.055V32ZM140.951 32.528C143.156 32.528 145.01 31.9824 146.512 30.8913C148.014 29.8001 149.034 28.2456 149.574 26.2276L144.681 25.2068C144.4 26.122 143.978 26.8259 143.414 27.3187C142.851 27.8115 142.03 28.0579 140.951 28.0579C139.507 28.0579 138.416 27.5475 137.677 26.5268C136.95 25.4943 136.586 24.1509 136.586 22.4966C136.586 20.9127 136.932 19.5928 137.624 18.5369C138.328 17.4692 139.437 16.9354 140.951 16.9354C141.83 16.9354 142.617 17.2111 143.309 17.7625C144.013 18.3139 144.506 19.0824 144.787 20.068L149.574 18.8008C149.152 16.8415 148.178 15.2987 146.653 14.1723C145.139 13.0343 143.262 12.4653 141.021 12.4653C139.085 12.4653 137.407 12.8994 135.988 13.7676C134.568 14.6358 133.465 15.8266 132.679 17.3401C131.905 18.8536 131.518 20.5725 131.518 22.4966C131.518 24.3973 131.893 26.1044 132.644 27.6179C133.395 29.1314 134.474 30.3281 135.882 31.2081C137.29 32.088 138.979 32.528 140.951 32.528ZM160.863 32.528C162.693 32.528 164.377 32.0469 165.914 31.0849C167.463 30.1228 168.595 28.7735 169.311 27.0371L164.524 25.6644C163.796 27.26 162.482 28.0579 160.582 28.0579C159.279 28.0579 158.253 27.6941 157.502 26.9667C156.763 26.2393 156.305 25.1951 156.129 23.8341H169.469C169.668 21.5345 169.434 19.5341 168.765 17.8329C168.096 16.1317 167.064 14.8118 165.668 13.8732C164.271 12.9346 162.576 12.4653 160.582 12.4653C158.704 12.4653 157.044 12.8935 155.601 13.75C154.158 14.5947 153.026 15.7856 152.204 17.3225C151.383 18.8595 150.973 20.6663 150.973 22.743C150.973 24.6437 151.389 26.3332 152.222 27.8115C153.067 29.278 154.228 30.4337 155.707 31.2784C157.197 32.1115 158.915 32.528 160.863 32.528ZM160.793 16.6186C161.943 16.6186 162.822 16.906 163.433 17.4809C164.054 18.0558 164.453 18.9886 164.629 20.2792H156.252C156.757 17.8388 158.27 16.6186 160.793 16.6186ZM177.277 32H183.191L188.787 23.271L194.348 32H200.226L191.744 19.188L200.015 6.65762H194.102L188.787 15.1051L183.402 6.65762H177.524L185.795 19.188L177.277 32Z" fill="#1C1C57"/>
<defs>
<linearGradient id="paint0_linear" x1="7.31257" y1="0.461975" x2="7.31257" y2="34.2561" gradientUnits="userSpaceOnUse">
<stop stop-color="#B7BAFF"/>
<stop offset="1" stop-color="#767BFE"/>
</linearGradient>
<linearGradient id="paint1_linear" x1="16.6191" y1="0.804626" x2="23.2608" y2="28.6287" gradientUnits="userSpaceOnUse">
<stop stop-color="#888CFF"/>
<stop offset="1" stop-color="#6065EC"/>
</linearGradient>
</defs>
</svg>
